<?xml version="1.0" encoding="UTF-8"?>
<svg xmlns="http://www.w3.org/2000/svg" id="_29000_pincode_coverage" data-name="29000+ pincode coverage" width="48" height="48" viewBox="0 0 48 48">
  <rect id="Rectangle_76" data-name="Rectangle 76" width="48" height="48" fill="none"></rect>
  <g id="Group_76" data-name="Group 76" transform="translate(-47.694 -38.084)">
    <path id="Path_196" data-name="Path 196" d="M49.666,45.855H43.111a1.039,1.039,0,0,0-.812,1.688l3.494,4.375a1.039,1.039,0,0,0,.812.391h2.937a1.038,1.038,0,0,0,1.027-1.194m-1.977-12.8H34.95l.65.82.405.509,2.92,3.66a1.039,1.039,0,0,0,.812.391h8.507a1.039,1.039,0,0,0,1.027-1.193M8.187,34.592,5.706,51.116a1.038,1.038,0,0,0,1.027,1.193H22.365a1.039,1.039,0,0,0,.813-1.686L10.027,34.1a1.039,1.039,0,0,0-1.84.493" transform="translate(44 33)" fill="#abffc7"></path>
    <path id="Path_197" data-name="Path 197" d="M48.189,35.3a.747.747,0,0,1-.735.857H34.4a.746.746,0,0,1-.678-1.055L35.6,31l-3.269,6.764a.734.734,0,0,0,.084.792L35.6,42.555l.4.508L42.4,51.1a.739.739,0,0,1-.584,1.206H27.622a.746.746,0,0,1-.584-.283L21,44.439l-.434-.537-.8-1.008.8-.679.123-.1,3.165-2.676a1.064,1.064,0,0,0,.264-1.281,1.052,1.052,0,0,0-.961-.594,1.036,1.036,0,0,0-.678.245l-1.79,1.508-.123.1-1.554,1.31a.744.744,0,0,1-1.065-.1l-5.474-6.878a1.83,1.83,0,0,1,1.338-2.967,16.735,16.735,0,0,1,1.771,4.286h.594a16.377,16.377,0,0,1,1.762-4.286h7.622a34.036,34.036,0,0,1,3.674,8.959h1.291a34.214,34.214,0,0,1,3.646-8.959h7.744a16.466,16.466,0,0,1,1.781,4.286h.584a16.419,16.419,0,0,1,1.771-4.286h.82a.75.75,0,0,1,.744.64Z" transform="translate(44 33)" fill="#abffc7"></path>
    <path id="Path_198" data-name="Path 198" d="M29.845,6.084A10.389,10.389,0,0,0,20.631,21.2a99.32,99.32,0,0,0,4.927,9.573h8.611a100.556,100.556,0,0,0,4.89-9.573A10.374,10.374,0,0,0,29.845,6.084m0,15.536a5.182,5.182,0,1,1,5.182-5.182,5.179,5.179,0,0,1-5.182,5.182" transform="translate(44 33)" fill="#7f6bf6"></path>
    <path id="Path_199" data-name="Path 199" d="M34.17,30.778a34.234,34.234,0,0,0-3.646,8.96H29.233a34.055,34.055,0,0,0-3.674-8.96Z" transform="translate(44 33)" fill="#5b3deb"></path>
    <path id="Path_200" data-name="Path 200" d="M43.977,19.67a4.757,4.757,0,0,0-4.221,6.916,40.85,40.85,0,0,0,2.158,4.192H46.05a42.3,42.3,0,0,0,2.138-4.192,4.756,4.756,0,0,0-4.211-6.916m0,7.1a2.365,2.365,0,1,1,2.365-2.365,2.368,2.368,0,0,1-2.365,2.365" transform="translate(44 33)" fill="#7f6bf6"></path>
    <path id="Path_201" data-name="Path 201" d="M46.05,30.778a16.425,16.425,0,0,0-1.771,4.287h-.584a16.506,16.506,0,0,0-1.781-4.287Z" transform="translate(44 33)" fill="#5b3deb"></path>
    <path id="Path_202" data-name="Path 202" d="M15.864,19.67a4.742,4.742,0,0,0-4.211,6.916,40.63,40.63,0,0,0,2.157,4.192h4.127a42.3,42.3,0,0,0,2.138-4.192,4.656,4.656,0,0,0,.528-2.167,4.745,4.745,0,0,0-4.739-4.749m0,7.1a2.365,2.365,0,1,1,2.365-2.365,2.36,2.36,0,0,1-2.365,2.365" transform="translate(44 33)" fill="#7f6bf6"></path>
    <path id="Path_203" data-name="Path 203" d="M17.936,30.778a16.383,16.383,0,0,0-1.762,4.287h-.593a16.781,16.781,0,0,0-1.772-4.287Z" transform="translate(44 33)" fill="#5b3deb"></path>
  </g>
</svg>
