<?xml version="1.0" encoding="UTF-8"?>
<svg xmlns="http://www.w3.org/2000/svg" xmlns:xlink="http://www.w3.org/1999/xlink" id="Cheap_Rates" data-name="Cheap Rates" width="48" height="48" viewBox="0 0 48 48">
  <defs>
    <clipPath id="clip-path">
      <rect id="Rectangle_7" data-name="Rectangle 7" width="45.016" height="44.751" fill="none"></rect>
    </clipPath>
  </defs>
  <rect id="Rectangle_76" data-name="Rectangle 76" width="48" height="48" fill="none"></rect>
  <g id="Group_161" data-name="Group 161" transform="translate(1 2)">
    <g id="Group_17" data-name="Group 17" transform="translate(0 0)" clip-path="url(#clip-path)">
      <path id="Path_217" data-name="Path 217" d="M13.886,36.691a4.225,4.225,0,1,1-5.269-2.819h0a4.224,4.224,0,0,1,5.268,2.818h0" transform="translate(0.435 2.609)" fill="#7f6bf6"></path>
      <path id="Path_218" data-name="Path 218" d="M36.552,37.917a4.225,4.225,0,1,1-4.225-4.225,4.225,4.225,0,0,1,4.225,4.225" transform="translate(2.177 2.61)" fill="#7f6bf6"></path>
      <path id="Path_219" data-name="Path 219" d="M44.423,25.583a46.824,46.824,0,0,0-4.234-6.217A7.942,7.942,0,0,0,34.112,16.4c-1.4-.022-2.791-.043-3.836-.043h-.011a5.223,5.223,0,0,0-3.416-3.922,5.382,5.382,0,0,0-1.25-.269c-.42-.032-1.2-.065-2.155-.1a8.818,8.818,0,0,1-15.6-.022c-1.2.032-2.2.065-2.758.119H4.967A5.225,5.225,0,0,0,.226,16.909C.1,18.429,0,22.728,0,25.572s.1,7.144.226,8.663A5.228,5.228,0,0,0,3.9,38.76a6.433,6.433,0,0,1,12.8.442c1.907-.011,4.385-.043,6.292-.108,1.519.043,3.426.086,5.086.108a6.433,6.433,0,0,1,12.811-.366,5.239,5.239,0,0,0,3.9-4.6c.119-1.314.2-3.857.226-6.368a4.6,4.6,0,0,0-.593-2.284m-3.674,1.174a1.219,1.219,0,0,1-.6.172H30.578V25.572c0-1.961-.043-4.6-.119-6.562,1,0,2.306.022,3.609.043a5.283,5.283,0,0,1,4.062,1.983,43.412,43.412,0,0,1,2.963,4.159,1.143,1.143,0,0,1-.345,1.562" transform="translate(0 0.933)" fill="#abffc7"></path>
      <path id="Path_220" data-name="Path 220" d="M22.882,12.079a8.818,8.818,0,0,1-15.6-.022c2.4-.065,5.581-.108,7.445-.108,2.047,0,5.7.054,8.156.129" transform="translate(0.564 0.926)" fill="#5b3deb"></path>
      <path id="Path_221" data-name="Path 221" d="M22.987,13c-2.457-.075-6.109-.129-8.156-.129-1.864,0-5.042.043-7.445.108a9.386,9.386,0,0,1-.851-2.37A8.883,8.883,0,0,1,13.785.108C14.023.075,14.26.032,14.5,0h1.4c.582.108,1.174.183,1.735.345a8.843,8.843,0,0,1,6.357,7.564,8.644,8.644,0,0,1-1,5.1" transform="translate(0.492 0)" fill="#7f6bf6"></path>
      <path id="Path_222" data-name="Path 222" d="M12.277,21.105V17.749a10.893,10.893,0,0,0,5.339,0V21.1h3.132l-5.8,7.421L9.156,21.105Z" transform="translate(0.709 1.375)" fill="#5b3deb"></path>
      <path id="Path_223" data-name="Path 223" d="M14.805,7.709H12.353a.522.522,0,0,1-.1-.008.158.158,0,0,1-.133-.152c0-.217,0-.433,0-.65a.158.158,0,0,1,.149-.157.64.64,0,0,1,.1-.006h2.355a.948.948,0,0,0-.342-.381,1.481,1.481,0,0,0-.612-.227,6.57,6.57,0,0,0-.667-.053c-.251-.01-.5,0-.753,0-.169,0-.236-.069-.237-.239V5.147c0-.17.065-.233.233-.233h4.8c.168,0,.236.065.235.232,0,.194,0,.388-.008.582a.156.156,0,0,1-.151.155.584.584,0,0,1-.087.006H15.824c.024.036.038.06.054.084a1.893,1.893,0,0,1,.294.671c.017.073.047.094.121.093.283,0,.566,0,.848,0a.584.584,0,0,1,.087.005.163.163,0,0,1,.156.166c0,.2.005.411,0,.616a.173.173,0,0,1-.2.184c-.289,0-.579,0-.867,0-.109,0-.11,0-.128.1a2.153,2.153,0,0,1-.571,1.118,2.372,2.372,0,0,1-1,.621c-.252.081-.514.135-.773.2.005.005.019.024.036.041.868.941,1.685,1.924,2.5,2.913.054.065.107.129.158.2a.156.156,0,0,1,.013.178.172.172,0,0,1-.158.109q-.587,0-1.173,0a.208.208,0,0,1-.159-.1c-.236-.28-.468-.564-.708-.839q-1-1.139-2-2.271c-.057-.065-.115-.127-.175-.19a.247.247,0,0,1-.072-.183c0-.228,0-.457,0-.685a.2.2,0,0,1,.222-.219c.253,0,.506.005.76,0a2.491,2.491,0,0,0,1.089-.24,1.149,1.149,0,0,0,.606-.686c.005-.017.008-.034.014-.059" transform="translate(0.938 0.381)" fill="#fff"></path>
    </g>
  </g>
</svg>
