<?xml version="1.0" encoding="UTF-8"?>
<svg xmlns="http://www.w3.org/2000/svg" width="48.973" height="48.973" viewBox="0 0 48.973 48.973">
  <g id="placeholder" transform="translate(0)">
    <path id="Path_214748" data-name="Path 214748" d="M44.866,362a1.435,1.435,0,0,0-1.244.721l-2.88,5.018H52.456l1.1-5.739Z" transform="translate(-36.845 -327.375)" fill="#7f6bf6"></path>
    <path id="Path_214749" data-name="Path 214749" d="M350.126,367.739l-2.88-5.018A1.435,1.435,0,0,0,346,362h-8.688l1.1,5.739Z" transform="translate(-305.05 -327.375)" fill="#7f6bf6"></path>
    <path id="Path_214750" data-name="Path 214750" d="M2.251,452l-2.06,3.59a1.435,1.435,0,0,0,1.244,2.149h12.53l1.1-5.739Z" transform="translate(0 -408.766)" fill="#7f6bf6"></path>
    <path id="Path_214751" data-name="Path 214751" d="M369.4,455.59,367.34,452H354.528l1.1,5.739h12.53a1.435,1.435,0,0,0,1.244-2.149Z" transform="translate(-320.617 -408.766)" fill="#7f6bf6"></path>
    <path id="Path_214752" data-name="Path 214752" d="M177.638,452l-1.1,5.739h15.2l-1.1-5.739Z" transform="translate(-159.654 -408.766)" fill="#7f6bf6"></path>
    <path id="Path_214753" data-name="Path 214753" d="M145.282,6.606a12.875,12.875,0,0,0-22.491,0,12.718,12.718,0,0,0,.3,13.039l9.73,15.734a1.435,1.435,0,0,0,2.441,0l9.73-15.734a12.718,12.718,0,0,0,.3-13.039Zm-11.246,13.46a7.174,7.174,0,1,1,7.174-7.174A7.182,7.182,0,0,1,134.036,20.066Z" transform="translate(-109.55)" fill="#abffc7"></path>
    <circle id="Ellipse_2721" data-name="Ellipse 2721" cx="4.304" cy="4.304" r="4.304" transform="translate(20.182 8.588)" fill="#7f6bf6"></circle>
    <path id="Path_214754" data-name="Path 214754" d="M199.709,368.694a4.277,4.277,0,0,1-3.661-2.041l-1.243-2.011-1.049,5.486h11.908l-1.049-5.486-1.244,2.011A4.277,4.277,0,0,1,199.709,368.694Z" transform="translate(-175.222 -329.764)" fill="#7f6bf6"></path>
  </g>
</svg>
