<?xml version="1.0" encoding="UTF-8"?>
<svg xmlns="http://www.w3.org/2000/svg" width="40.73" height="50.923" viewBox="0 0 40.73 50.923">
  <g id="loss" transform="translate(0 0)">
    <path id="Path_214755" data-name="Path 214755" d="M64.73,456.9H53.977a2.738,2.738,0,0,0,0,5.477H69.563A16.187,16.187,0,0,1,64.73,456.9Z" transform="translate(-51.239 -411.459)" fill="#7f6bf6"></path>
    <path id="Path_214756" data-name="Path 214756" d="M53.977,377.321h9.514a15.977,15.977,0,0,1-.679-4.626c0-.285.008-.569.022-.85H53.977a2.738,2.738,0,1,0,0,5.476Z" transform="translate(-51.239 -334.862)" fill="#7f6bf6"></path>
    <path id="Path_214757" data-name="Path 214757" d="M53.977,292.257h9.3a16,16,0,0,1,2.516-5.477H53.977a2.738,2.738,0,0,0,0,5.477Z" transform="translate(-51.239 -258.257)" fill="#7f6bf6"></path>
    <path id="Path_214758" data-name="Path 214758" d="M53.977,207.2H68.543a16,16,0,0,1,8.676-3.691,2.743,2.743,0,0,0-2.567-1.785H53.977a2.738,2.738,0,1,0,0,5.476Z" transform="translate(-51.239 -181.661)" fill="#7f6bf6"></path>
    <path id="Path_214759" data-name="Path 214759" d="M201.391,252.329a13.084,13.084,0,1,0,22.275,9.311C223.666,250.2,209.754,244.07,201.391,252.329ZM215.3,265.172a4.943,4.943,0,0,1-3.269,3.833v.4a1.492,1.492,0,0,1-2.984,0v-.224a5.913,5.913,0,0,1-2.583-1.04,1.473,1.473,0,0,1-.4-.382,1.493,1.493,0,0,1,1.924-2.179h0a3.333,3.333,0,0,0,2.5.687,1.886,1.886,0,0,0,1.032-.3h0c.967-.631,1.389-2.366-.182-2.922-1.266-.446-3.454-1.266-4.322-2.293h0a4.151,4.151,0,0,1,2.03-6.47,1.68,1.68,0,0,1,.731-1.687c.841-.5,2.253-.17,2.253,1.615a8.559,8.559,0,0,1,1.274.491,1.5,1.5,0,1,1-1.262,2.712,2.58,2.58,0,0,0-2.118-.281,1.175,1.175,0,0,0-.62,1.7,12.35,12.35,0,0,0,3.029,1.4A4.367,4.367,0,0,1,215.3,265.172Z" transform="translate(-182.935 -223.806)" fill="#7f6bf6"></path>
    <path id="Path_214760" data-name="Path 214760" d="M115.793,16.54a1.215,1.215,0,0,0,2.02,0l6.062-7.722a1.215,1.215,0,0,0-1.01-1.891h-1.851A1.215,1.215,0,0,1,119.8,5.713v-4.5A1.215,1.215,0,0,0,118.584,0h-3.563a1.215,1.215,0,0,0-1.214,1.215v4.5a1.215,1.215,0,0,1-1.215,1.215H110.74a1.215,1.215,0,0,0-1.009,1.891Z" transform="translate(-103.727 0)" fill="#abffc7"></path>
  </g>
</svg>
