<?xml version="1.0" encoding="UTF-8"?>
<svg xmlns="http://www.w3.org/2000/svg" width="52.993" height="53.2" viewBox="0 0 52.993 53.2">
  <g id="team" transform="translate(-1)">
    <g id="Group_268229" data-name="Group 268229" transform="translate(1 0)">
      <g id="Group_268226" data-name="Group 268226" transform="translate(15.585)">
        <path id="Path_214770" data-name="Path 214770" d="M156.635,20.987a2.394,2.394,0,0,1-2.353-2.8l.793-4.625-3.36-3.275a2.39,2.39,0,0,1,1.324-4.076l4.644-.675,2.077-4.208a2.39,2.39,0,0,1,4.286,0l2.077,4.208,4.644.675a2.39,2.39,0,0,1,1.324,4.076l-3.36,3.275.793,4.625a2.39,2.39,0,0,1-3.467,2.519L161.9,18.527l-4.153,2.184A2.391,2.391,0,0,1,156.635,20.987Z" transform="translate(-150.991 0)" fill="#abffc7"></path>
      </g>
      <g id="Group_268227" data-name="Group 268227" transform="translate(0 8.313)">
        <path id="Path_214771" data-name="Path 214771" d="M13.93,97.017a2.206,2.206,0,0,1-1.028-.256L9.833,95.147,6.764,96.761a2.2,2.2,0,0,1-3.2-2.324l.586-3.418L1.667,88.6a2.205,2.205,0,0,1,1.222-3.761l3.432-.5,1.535-3.11a2.205,2.205,0,0,1,3.955,0l1.535,3.11,3.432.5A2.2,2.2,0,0,1,18,88.6l-2.483,2.42.586,3.418a2.209,2.209,0,0,1-2.171,2.58Z" transform="translate(-1 -80)" fill="#7f6bf6"></path>
      </g>
      <g id="Group_268228" data-name="Group 268228" transform="translate(35.327 8.313)">
        <path id="Path_214772" data-name="Path 214772" d="M353.913,97.017a2.206,2.206,0,0,1-1.028-.256l-3.069-1.614-3.069,1.614a2.2,2.2,0,0,1-3.2-2.324l.586-3.418L341.65,88.6a2.205,2.205,0,0,1,1.222-3.761l3.432-.5,1.535-3.11a2.2,2.2,0,0,1,3.954,0l1.535,3.11,3.432.5a2.2,2.2,0,0,1,1.222,3.761l-2.483,2.42.586,3.418a2.209,2.209,0,0,1-2.171,2.58Z" transform="translate(-340.983 -80)" fill="#7f6bf6"></path>
      </g>
    </g>
    <g id="Group_268238" data-name="Group 268238" transform="translate(1 31.38)">
      <g id="Group_268237" data-name="Group 268237">
        <g id="Group_268236" data-name="Group 268236">
          <g id="Group_268231" data-name="Group 268231">
            <g id="Group_268230" data-name="Group 268230" transform="translate(0 11.341)">
              <path id="Path_214773" data-name="Path 214773" d="M14.384,411.147a8.3,8.3,0,0,1-11.182,0A5.188,5.188,0,0,0,1,415.392v4.676a1.559,1.559,0,0,0,1.559,1.559H15.027a1.559,1.559,0,0,0,1.559-1.559v-4.676A5.188,5.188,0,0,0,14.384,411.147Z" transform="translate(-1 -411.147)" fill="#7f6bf6"></path>
            </g>
            <path id="Path_214774" data-name="Path 214774" d="M31.2,312.391a5.2,5.2,0,1,1,5.2-5.2A5.2,5.2,0,0,1,31.2,312.391Z" transform="translate(-23.402 -302)" fill="#7f6bf6"></path>
          </g>
          <g id="Group_268233" data-name="Group 268233" transform="translate(37.407)">
            <g id="Group_268232" data-name="Group 268232" transform="translate(0 11.341)">
              <path id="Path_214775" data-name="Path 214775" d="M374.384,411.147a8.3,8.3,0,0,1-11.182,0,5.187,5.187,0,0,0-2.2,4.245v4.676a1.559,1.559,0,0,0,1.559,1.559h12.469a1.559,1.559,0,0,0,1.559-1.559v-4.676A5.188,5.188,0,0,0,374.384,411.147Z" transform="translate(-361 -411.147)" fill="#7f6bf6"></path>
            </g>
            <path id="Path_214776" data-name="Path 214776" d="M391.2,312.391a5.2,5.2,0,1,1,5.2-5.2A5.2,5.2,0,0,1,391.2,312.391Z" transform="translate(-383.402 -302)" fill="#7f6bf6"></path>
          </g>
          <g id="Group_268235" data-name="Group 268235" transform="translate(18.703)">
            <g id="Group_268234" data-name="Group 268234" transform="translate(0 11.341)">
              <path id="Path_214777" data-name="Path 214777" d="M194.384,411.147a8.3,8.3,0,0,1-11.182,0,5.188,5.188,0,0,0-2.2,4.245v4.676a1.559,1.559,0,0,0,1.559,1.559h12.469a1.559,1.559,0,0,0,1.559-1.559v-4.676A5.187,5.187,0,0,0,194.384,411.147Z" transform="translate(-181 -411.147)" fill="#7f6bf6"></path>
            </g>
            <path id="Path_214778" data-name="Path 214778" d="M211.2,312.391a5.2,5.2,0,1,1,5.2-5.2A5.2,5.2,0,0,1,211.2,312.391Z" transform="translate(-203.402 -302)" fill="#7f6bf6"></path>
          </g>
        </g>
      </g>
    </g>
  </g>
</svg>
