<?xml version="1.0" encoding="UTF-8"?>
<svg xmlns="http://www.w3.org/2000/svg" width="52.805" height="53.979" viewBox="0 0 52.805 53.979">
  <g id="Group_268179" data-name="Group 268179" transform="translate(0 0)">
    <g id="receipt" transform="translate(0 0)">
      <path id="Path_212131" data-name="Path 212131" d="M391,399.907a4.744,4.744,0,0,0,9.489,0v-6.326A1.581,1.581,0,0,0,398.907,392H391Z" transform="translate(-353.046 -350.672)" fill="#abffc7"></path>
      <path id="Path_212132" data-name="Path 212132" d="M65.328,3.627,62.165.464a1.581,1.581,0,0,0-2.236,0L57.884,2.509,55.839.464a1.581,1.581,0,0,0-2.236,0L51.559,2.509,49.514.464a1.581,1.581,0,0,0-2.236,0L45.233,2.509,43.188.464a1.581,1.581,0,0,0-2.236,0L38.907,2.509,36.862.464a1.581,1.581,0,0,0-2.236,0L31.463,3.627A1.58,1.58,0,0,0,31,4.745V47.654a6.332,6.332,0,0,0,6.326,6.326H67.413a7.831,7.831,0,0,1-1.622-4.744V4.745A1.58,1.58,0,0,0,65.328,3.627ZM42.07,12.757H54.721a1.581,1.581,0,0,1,0,3.163H42.07a1.581,1.581,0,0,1,0-3.163ZM48.4,44.491H38.907a1.581,1.581,0,1,1,0-3.163H48.4a1.581,1.581,0,1,1,0,3.163Zm0-6.326H38.907a1.581,1.581,0,0,1,0-3.163H48.4a1.581,1.581,0,0,1,0,3.163Zm0-6.326H38.907a1.581,1.581,0,0,1,0-3.163H48.4a1.581,1.581,0,0,1,0,3.163Zm0-6.326H38.907a1.581,1.581,0,0,1,0-3.163H48.4a1.581,1.581,0,0,1,0,3.163Zm9.489,18.977H54.721a1.581,1.581,0,0,1,0-3.163h3.163a1.581,1.581,0,1,1,0,3.163Zm0-6.326H54.721a1.581,1.581,0,0,1,0-3.163h3.163a1.581,1.581,0,1,1,0,3.163Zm0-6.326H54.721a1.581,1.581,0,0,1,0-3.163h3.163a1.581,1.581,0,1,1,0,3.163Zm0-6.326H54.721a1.581,1.581,0,0,1,0-3.163h3.163a1.581,1.581,0,1,1,0,3.163Z" transform="translate(-31 -0.001)" fill="#abffc7"></path>
    </g>
    <g id="rupee" transform="translate(25.319 10.381)">
      <path id="Path_212133" data-name="Path 212133" d="M98.911,90a8.911,8.911,0,1,0,8.911,8.911A8.921,8.921,0,0,0,98.911,90Zm2.395,6.03h.809a.805.805,0,1,1,0,1.611h-.8a4.062,4.062,0,0,1-3.682,3.262l3.491,3.491a.805.805,0,0,1-1.139,1.139l-4.855-4.855A.806.806,0,0,1,95.7,99.3h1.637a2.446,2.446,0,0,0,2.314-1.662H95.686a.805.805,0,1,1,0-1.61h3.95a2.449,2.449,0,0,0-2.008-1.6h-1.9a.838.838,0,0,1-.834-.823.805.805,0,0,1,.805-.805c1.458.005,4.982.014,6.435.018a.805.805,0,1,1,0,1.61h-1.552a4.035,4.035,0,0,1,.722,1.595Z" transform="translate(-85.169 -85.169)" fill="#5c3deb"></path>
      <path id="Path_212134" data-name="Path 212134" d="M13.743,0A13.743,13.743,0,1,0,27.486,13.743,13.735,13.735,0,0,0,13.743,0Zm0,24.265A10.522,10.522,0,1,1,24.265,13.743,10.534,10.534,0,0,1,13.743,24.265Z" fill="#5c3deb"></path>
    </g>
  </g>
</svg>
