<?xml version="1.0" encoding="UTF-8"?>
<svg xmlns="http://www.w3.org/2000/svg" xmlns:xlink="http://www.w3.org/1999/xlink" id="Instant_Help_For_Order_Queries" data-name="Instant Help For Order Queries" width="48" height="48" viewBox="0 0 48 48">
  <defs>
    <clipPath id="clip-path">
      <rect id="Rectangle_102" data-name="Rectangle 102" width="42.762" height="48" fill="none"></rect>
    </clipPath>
  </defs>
  <rect id="Rectangle_76" data-name="Rectangle 76" width="48" height="48" transform="translate(0 0)" fill="none"></rect>
  <g id="Group_212" data-name="Group 212" transform="translate(3 0)">
    <g id="Group_211" data-name="Group 211" transform="translate(0 0)" clip-path="url(#clip-path)">
      <path id="Path_867" data-name="Path 867" d="M42.754,43.362q.016.561,0,1.121A2.464,2.464,0,0,1,41,46.871a1.293,1.293,0,0,0-.208.1l-38.8-.01A6.808,6.808,0,0,1,1,46.456a2.26,2.26,0,0,1-.966-1.838A15.653,15.653,0,0,1,6.754,30.684c.332-.239.675-.457,1.028-.665a.227.227,0,0,0,.052-.031,15.833,15.833,0,0,1,2.928-1.329,28.783,28.783,0,0,1,5.368-1.485,7.929,7.929,0,0,0,2.2,1.142,4.051,4.051,0,0,1,2.077-1.578c.332-.01.665-.021,1-.021a30.362,30.362,0,0,1,8.006,1.059,4.842,4.842,0,0,1-3.1.976c-1.526.01-3.053-.01-4.59,0a1.682,1.682,0,0,0-.228.01,1.661,1.661,0,1,0,.249,3.312c1.609,0,3.219.042,4.828-.01A8.038,8.038,0,0,0,32.911,29c.706.3,1.391.623,2.046.976l.01-.01a.275.275,0,0,1,.062.052l.062.031c.592.415,1.215.8,1.765,1.267a15.533,15.533,0,0,1,5.9,12.045" transform="translate(0 1.025)" fill="#abffc7"></path>
      <path id="Path_868" data-name="Path 868" d="M34.845,12.665a1.7,1.7,0,0,1-.519-1.142,13.321,13.321,0,0,0-26.436.332,1.1,1.1,0,0,1-.322.623A2.787,2.787,0,0,0,6.716,14.4q-.031,3.582,0,7.165a2.713,2.713,0,0,0,1.859,2.513,2.775,2.775,0,0,0,3.053-.862c.083-.114.177-.218.28-.353A14.4,14.4,0,0,0,15.874,28.2a28.7,28.7,0,0,1,4.278-.436,3.984,3.984,0,0,1,1.682-.218c1.4.042,2.814,0,4.216.01a2.661,2.661,0,0,0,2.316-1.1,23.6,23.6,0,0,0,1.277-2.014c.27-.5.467-1.028.706-1.558.228.239.426.457.613.685a.475.475,0,0,1,.156.312,11.2,11.2,0,0,1-.1,1.962A4.837,4.837,0,0,1,29.154,28.8a28.361,28.361,0,0,1,3.5,1.225,7.671,7.671,0,0,0,1.111-1.869,8.156,8.156,0,0,0,.685-3.977.892.892,0,0,1,.3-.768,2.575,2.575,0,0,0,.82-1.931V14.492a2.465,2.465,0,0,0-.727-1.828m-4.143.042a2.849,2.849,0,0,0-.415.519c-.083-.2-.156-.343-.228-.509a10.2,10.2,0,0,0-6.209-5.929c-3.676-1.173-6.822-.1-9.459,2.617A11.581,11.581,0,0,0,12,13.215c-.26-.291-.478-.519-.675-.789a.649.649,0,0,1-.093-.415A9.994,9.994,0,0,1,31,11.72a.916.916,0,0,1-.3.986" transform="translate(0.257 0.001)" fill="#7f6bf6"></path>
      <path id="Path_869" data-name="Path 869" d="M19.813,26.737a4.051,4.051,0,0,0-2.077,1.578,7.929,7.929,0,0,1-2.2-1.142,28.7,28.7,0,0,1,4.278-.436" transform="translate(0.596 1.026)" fill="#40b1e3"></path>
      <path id="Path_870" data-name="Path 870" d="M32.174,28.962a8.038,8.038,0,0,1-6.344,3.063c-1.609.052-3.219.01-4.828.01a1.662,1.662,0,1,1-.021-3.323c1.537-.01,3.063.01,4.59,0a4.842,4.842,0,0,0,3.1-.976,28.36,28.36,0,0,1,3.5,1.225" transform="translate(0.737 1.064)" fill="#5b3deb"></path>
    </g>
  </g>
</svg>
