<?xml version="1.0" encoding="UTF-8"?>
<svg xmlns="http://www.w3.org/2000/svg" xmlns:xlink="http://www.w3.org/1999/xlink" id="Track_your_orders" data-name="Track your orders" width="48" height="48" viewBox="0 0 48 48">
  <defs>
    <clipPath id="clip-path">
      <rect id="Rectangle_97" data-name="Rectangle 97" width="46.74" height="48" transform="translate(0 -0.001)" fill="none"></rect>
    </clipPath>
  </defs>
  <rect id="Rectangle_76" data-name="Rectangle 76" width="48" height="48" fill="none"></rect>
  <g id="Group_204" data-name="Group 204" transform="translate(1 0.001)" clip-path="url(#clip-path)">
    <path id="Path_812" data-name="Path 812" d="M44.767,0H1.972A1.988,1.988,0,0,0,0,1.976v33.6a1.988,1.988,0,0,0,1.972,1.976H44.767a1.985,1.985,0,0,0,1.972-1.976V1.976A1.937,1.937,0,0,0,44.767,0M12.32,2.273a1.413,1.413,0,0,1,1-.409,1.4,1.4,0,0,1,1.416,1.412,1.457,1.457,0,0,1-.409,1.007,1.341,1.341,0,0,1-1.007.447,1.4,1.4,0,0,1-1.412-1.416,1.578,1.578,0,0,1,.409-1.04m-4.729,0A1.431,1.431,0,0,1,8.6,1.864,1.4,1.4,0,0,1,10.01,3.276,1.4,1.4,0,0,1,8.6,4.692a1.455,1.455,0,0,1-1.007-.409,1.457,1.457,0,0,1-.409-1.007,1.583,1.583,0,0,1,.409-1M4.875,4.283a1.437,1.437,0,0,1-2.009,0,1.457,1.457,0,0,1-.409-1.007,1.583,1.583,0,0,1,.409-1,1.437,1.437,0,0,1,2.009,0,1.436,1.436,0,0,1,.409,1,1.457,1.457,0,0,1-.409,1.007" transform="translate(0 0)" fill="#abffc7"></path>
    <path id="Path_813" data-name="Path 813" d="M22.26,37.666H21.126a.576.576,0,0,0-.541.4.569.569,0,0,0,.541.739H22.26a.567.567,0,0,0,0-1.135" transform="translate(1.89 3.463)" fill="#7f6bf6" fill-rule="evenodd"></path>
    <path id="Path_814" data-name="Path 814" d="M18.656,38.041a.568.568,0,0,0-.456-.409,5.031,5.031,0,0,1-.978-.269.569.569,0,0,0-.768.542.56.56,0,0,0,.363.518,6.371,6.371,0,0,0,1.2.33.569.569,0,0,0,.636-.711" transform="translate(1.513 3.431)" fill="#7f6bf6" fill-rule="evenodd"></path>
    <path id="Path_815" data-name="Path 815" d="M14.521,30.591a.567.567,0,0,0-.87.226,6.15,6.15,0,0,0-.367,1.19.564.564,0,1,0,1.105.222,4.784,4.784,0,0,1,.306-.97.574.574,0,0,0-.174-.668" transform="translate(1.22 2.801)" fill="#5b3deb" fill-rule="evenodd"></path>
    <path id="Path_816" data-name="Path 816" d="M17.547,27.85a.563.563,0,0,0-.6-.132,6.473,6.473,0,0,0-1.11.556.566.566,0,1,0,.607.955,5.107,5.107,0,0,1,.908-.452.564.564,0,0,0,.2-.927" transform="translate(1.431 2.545)" fill="#5b3deb" fill-rule="evenodd"></path>
    <path id="Path_817" data-name="Path 817" d="M21.269,27.358H20.135a.567.567,0,0,0,0,1.135h1.135a.567.567,0,0,0,0-1.135" transform="translate(1.799 2.515)" fill="#5b3deb" fill-rule="evenodd"></path>
    <path id="Path_818" data-name="Path 818" d="M25.415,27.358H24.281a.567.567,0,0,0,0,1.135h1.135a.567.567,0,1,0,0-1.135" transform="translate(2.18 2.515)" fill="#5b3deb" fill-rule="evenodd"></path>
    <path id="Path_819" data-name="Path 819" d="M29.876,27.1a.561.561,0,0,0-.589-.094,4.971,4.971,0,0,1-.974.3.566.566,0,1,0,.216,1.11,6.128,6.128,0,0,0,1.191-.361.568.568,0,0,0,.155-.951" transform="translate(2.561 2.479)" fill="#5b3deb" fill-rule="evenodd"></path>
    <path id="Path_820" data-name="Path 820" d="M32.2,24.069a.563.563,0,0,0-.456.358,5.286,5.286,0,0,1-.461.907.566.566,0,0,0,.3.843.572.572,0,0,0,.658-.23,6.463,6.463,0,0,0,.56-1.112.566.566,0,0,0-.6-.767" transform="translate(2.867 2.212)" fill="#5b3deb" fill-rule="evenodd"></path>
    <path id="Path_821" data-name="Path 821" d="M33.016,21.533a6.469,6.469,0,0,0-.409-1.176.567.567,0,0,0-1.031.475,4.78,4.78,0,0,1,.334.96.568.568,0,0,0,1.106-.259" transform="translate(2.898 1.841)" fill="#5b3deb" fill-rule="evenodd"></path>
    <path id="Path_822" data-name="Path 822" d="M30.413,17.876a6.474,6.474,0,0,0-1.129-.522.568.568,0,1,0-.372,1.072,4.985,4.985,0,0,1,.923.424.566.566,0,0,0,.579-.974" transform="translate(2.623 1.592)" fill="#5b3deb" fill-rule="evenodd"></path>
    <path id="Path_823" data-name="Path 823" d="M26.113,17.049H24.979a.567.567,0,0,0,0,1.135h1.135a.567.567,0,0,0,0-1.135" transform="translate(2.244 1.567)" fill="#5b3deb" fill-rule="evenodd"></path>
    <path id="Path_824" data-name="Path 824" d="M31.594,29.25a5.16,5.16,0,0,0-5.163,5.157,3.064,3.064,0,0,0,.038.456H28.93a2.486,2.486,0,0,1-.043-.461,2.706,2.706,0,1,1,5.412,0,2.486,2.486,0,0,1-.043.461h2.461a3.973,3.973,0,0,0,.033-.456,5.156,5.156,0,0,0-5.157-5.157" transform="translate(2.43 2.689)" fill="#5b3deb" fill-rule="evenodd"></path>
    <path id="Path_825" data-name="Path 825" d="M20.126,15.7l-6.418-3.7a.639.639,0,0,0-.66,0l-2.183,1.261,7.077,4.085v3.026a.316.316,0,0,1-.165.287L16.14,21.6a.176.176,0,0,1-.165,0,.164.164,0,0,1-.085-.146V18.525L8.814,14.44,6.63,15.7a.644.644,0,0,0-.33.574v7.411a.642.642,0,0,0,.33.57l6.418,3.7a.639.639,0,0,0,.66,0l6.418-3.7a.642.642,0,0,0,.33-.57V16.271a.644.644,0,0,0-.33-.574" transform="translate(0.579 1.094)" fill="#5b3deb" fill-rule="evenodd"></path>
    <path id="Path_826" data-name="Path 826" d="M21.963,17.049H20.828a.567.567,0,0,0,0,1.135h1.135a.579.579,0,0,0,.542-.4.568.568,0,0,0-.542-.739" transform="translate(1.863 1.567)" fill="#5b3deb" fill-rule="evenodd"></path>
    <path id="Path_827" data-name="Path 827" d="M38.23,42.23c0,1.135-2.918,2.056-6.522,2.056s-6.522-.922-6.522-2.056c0-.809,1.473-1.506,3.623-1.844.3.414.607.809.89,1.18-.574.151-.941.368-.941.6,0,.456,1.322.828,2.95.828s2.946-.371,2.946-.828c0-.235-.363-.452-.937-.6.287-.367.589-.767.894-1.18,2.146.338,3.619,1.035,3.619,1.844" transform="translate(2.315 3.713)" fill="#7f6bf6" fill-rule="evenodd"></path>
    <path id="Path_828" data-name="Path 828" d="M15.135,35.753a.567.567,0,0,1-.937.64A6.378,6.378,0,0,1,13.6,35.3a.569.569,0,0,1,.034-.508.563.563,0,0,1,1.007.066,5.471,5.471,0,0,0,.489.894" transform="translate(1.247 3.173)" fill="#7f6bf6" fill-rule="evenodd"></path>
    <path id="Path_829" data-name="Path 829" d="M31.463,42.669c-1.5-1.868-4.621-5.835-5-8.278h10.25c-.377,2.494-3.563,6.489-5,8.278a.136.136,0,0,1-.122.061.151.151,0,0,1-.127-.061" transform="translate(2.433 3.161)" fill="#7f6bf6" fill-rule="evenodd"></path>
    <path id="Path_830" data-name="Path 830" d="M25.271,38.8a.567.567,0,0,1,0-1.135h1.135a.567.567,0,0,1,0,1.135Z" transform="translate(2.271 3.463)" fill="#7f6bf6" fill-rule="evenodd"></path>
    <path id="Path_831" data-name="Path 831" d="M34.267,34.353A2.869,2.869,0,1,1,31.4,31.485a2.868,2.868,0,0,1,2.868,2.868" transform="translate(2.623 2.894)" fill="#fff" fill-rule="evenodd"></path>
  </g>
</svg>
